# xmcd
#
# Track frame offsets: 
#        150
#        23825
#        44176
#        65609
#        89091
#        112590
#        133837
#        152805
#        170032
#        189457
#        212685
#        234362
#        260299
#
# Disc length: 3830 seconds
#
# Revision: 2
# Processed by: cddbd v1.5.2PL0 Copyright (c) Steve Scherf et al.
# Submitted via: ExactAudioCopyFreeDBPlugin 1.0
#
DISCID=b80ef40d
DTITLE=May J. - Heartful Song Covers
DYEAR=2014
DGENRE=JPop
TTITLE0=手紙 ～拝啓 十五の君へ～
TTITLE1=Believe
TTITLE2=キラキラ
TTITLE3=元気を出して
TTITLE4=Story
TTITLE5=花 ～すべての人の心に花を～
TTITLE6=生きてこそ
TTITLE7=やさしさに包まれながら
TTITLE8=Let It Go ～ありのままで～ [Heartful ver.]
TTITLE9=永遠に
TTITLE10=I Believe [Japanese Version]  feat.V.I (from BIGBANG)
TTITLE11=遠く遠く
TTITLE12=Amazing Grace
EXTD=YEAR: 2014
EXTT0=
EXTT1=
EXTT2=
EXTT3=
EXTT4=
EXTT5=
EXTT6=
EXTT7=
EXTT8=
EXTT9=
EXTT10=
EXTT11=
EXTT12=
PLAYORDER=
